<?xml version="1.0" encoding="utf-8"?>
<svg version="1.1" id="Calque_1" xmlns="http://www.w3.org/2000/svg" xmlns:xlink="http://www.w3.org/1999/xlink" x="0px" y="0px"
	 viewBox="0 0 1000 1000" style="enable-background:new 0 0 1000 1000;" xml:space="preserve">
<style type="text/css">
	.st0{fill:#FFFFFF;}
</style>
<g>
	<path class="st0" d="M255,194.4v-92.5c0-50.7-41.2-91.9-91.9-91.9s-91.9,41.2-91.9,91.9v92.5c-37,28-61.3,71.9-61.3,121.9
		S34.3,410.1,71.3,438v460.1c0,50.7,41.2,91.9,91.9,91.9s91.9-41.2,91.9-91.9V438c37-27.9,61.3-71.8,61.3-121.8S292,222.4,255,194.4
		z M132.5,101.9c0-16.9,13.7-30.6,30.6-30.6s30.6,13.7,30.6,30.6v64.3c-9.9-2-20.1-3.1-30.6-3.1s-20.7,1.1-30.6,3.1V101.9z
		 M193.8,898.1c0,16.9-13.7,30.6-30.6,30.6s-30.6-13.7-30.6-30.6V466.3c9.9,2.1,20.1,3.1,30.6,3.1s20.7-1.1,30.6-3.1V898.1z
		 M250.9,342c-0.5,1.6-0.9,3.2-1.5,4.8c-2.9,8.1-6.6,15.7-11.6,22.5c-0.1,0.2-0.3,0.3-0.4,0.5c-5.3,7.3-11.7,13.8-18.9,19.2
		c-0.1,0.1-0.2,0.2-0.3,0.2c-7.4,5.6-15.6,10-24.5,13.2c-9.6,3.5-19.8,5.7-30.6,5.7s-21-2.2-30.6-5.7c-8.9-3.1-17.1-7.6-24.5-13.2
		c-0.1-0.1-0.2-0.1-0.3-0.2c-7.2-5.5-13.5-11.9-18.9-19.2c-0.1-0.2-0.3-0.3-0.4-0.5c-4.9-6.8-8.7-14.5-11.6-22.5
		c-0.6-1.6-1-3.2-1.5-4.8c-2.4-8.2-4.1-16.7-4.1-25.7s1.7-17.6,4.1-25.8c0.5-1.6,0.9-3.2,1.5-4.8c2.9-8.1,6.6-15.7,11.6-22.6
		c0.1-0.2,0.3-0.3,0.4-0.5c5.3-7.2,11.7-13.8,18.9-19.2c0.1-0.1,0.2-0.2,0.3-0.2c7.4-5.5,15.6-10,24.4-13.1
		c9.6-3.4,19.8-5.6,30.6-5.6s21,2.2,30.6,5.6c8.9,3.2,17.1,7.7,24.5,13.2c0.1,0.1,0.2,0.2,0.3,0.2c7.2,5.5,13.5,12,18.9,19.2
		c0.1,0.2,0.3,0.3,0.4,0.5c4.9,6.8,8.7,14.5,11.5,22.6c0.6,1.6,1,3.2,1.5,4.8c2.5,8.2,4.1,16.8,4.1,25.8
		C255,325.2,253.3,333.8,250.9,342z M928.8,194.4v-92.5c0-50.7-41.2-91.9-91.9-91.9S745,51.2,745,101.9v92.5
		c-37,28-61.3,71.9-61.3,121.9S708,410.1,745,438v460.1c0,50.7,41.2,91.9,91.9,91.9s91.9-41.2,91.9-91.9V438
		c37-27.9,61.3-71.8,61.3-121.8S965.7,222.4,928.8,194.4z M806.3,101.9c0-16.9,13.7-30.6,30.6-30.6s30.6,13.7,30.6,30.6v64.3
		c-9.9-2-20.2-3.1-30.6-3.1c-10.5,0-20.8,1.1-30.6,3.1V101.9z M867.5,898.1c0,16.9-13.7,30.6-30.6,30.6s-30.6-13.7-30.6-30.6V466.3
		c9.9,2.1,20.1,3.1,30.6,3.1s20.7-1.1,30.6-3.1V898.1z M924.6,342c-0.5,1.6-0.9,3.2-1.5,4.8c-2.9,8.1-6.6,15.7-11.6,22.5
		c-0.1,0.2-0.3,0.3-0.4,0.5c-5.3,7.3-11.7,13.8-18.8,19.2c-0.1,0.1-0.2,0.2-0.3,0.2c-7.4,5.6-15.6,10-24.5,13.2
		c-9.6,3.5-19.8,5.7-30.6,5.7s-21-2.2-30.6-5.7c-8.9-3.1-17.1-7.6-24.5-13.2c-0.1-0.1-0.2-0.1-0.3-0.2c-7.2-5.5-13.6-11.9-18.9-19.2
		c-0.1-0.2-0.3-0.3-0.4-0.5c-4.9-6.8-8.7-14.5-11.5-22.5c-0.6-1.6-1-3.2-1.5-4.8c-2.4-8.2-4.1-16.7-4.1-25.7s1.7-17.6,4.1-25.8
		c0.5-1.6,0.9-3.2,1.5-4.8c2.9-8.1,6.6-15.7,11.5-22.6c0.1-0.2,0.3-0.3,0.4-0.5c5.3-7.2,11.7-13.8,18.9-19.2
		c0.1-0.1,0.2-0.2,0.3-0.2c7.3-5.5,15.6-10,24.5-13.2c9.6-3.4,19.8-5.6,30.6-5.6s21,2.2,30.6,5.6c8.9,3.2,17.1,7.7,24.5,13.2
		c0.1,0.1,0.2,0.2,0.3,0.2c7.2,5.5,13.5,12,18.8,19.2c0.1,0.2,0.3,0.3,0.4,0.5c5,6.9,8.7,14.5,11.6,22.6c0.5,1.6,1,3.2,1.5,4.8
		c2.4,8.2,4.1,16.7,4.1,25.8C928.8,325.2,927.1,333.8,924.6,342z M591.9,561.9v-460c0-50.7-41.2-91.9-91.9-91.9
		s-91.9,41.2-91.9,91.9v460c-37,28-61.3,71.9-61.3,121.9s24.3,93.8,61.3,121.8v92.6c0,50.7,41.2,91.9,91.9,91.9s91.9-41.2,91.9-91.9
		v-92.6c37-27.9,61.3-71.8,61.3-121.8S628.8,589.9,591.9,561.9z M469.4,101.9c0-16.9,13.7-30.6,30.6-30.6
		c16.9,0,30.6,13.7,30.6,30.6v431.8c-9.9-2-20.2-3.1-30.6-3.1c-10.5,0-20.7,1.1-30.6,3.1L469.4,101.9L469.4,101.9z M530.6,898.1
		c0,16.9-13.7,30.6-30.6,30.6s-30.6-13.7-30.6-30.6v-64.4c9.9,2.1,20.1,3.1,30.6,3.1s20.7-1.1,30.6-3.1V898.1z M587.7,709.5
		c-0.5,1.6-0.9,3.2-1.5,4.8c-2.9,8.1-6.6,15.7-11.6,22.5c-0.1,0.2-0.3,0.3-0.4,0.5c-5.3,7.3-11.7,13.8-18.8,19.2
		c-0.1,0.1-0.2,0.2-0.3,0.2c-7.4,5.6-15.6,10-24.5,13.2c-9.6,3.5-19.8,5.7-30.6,5.7c-10.8,0-21-2.2-30.6-5.7
		c-8.9-3.1-17.1-7.6-24.5-13.2c-0.1-0.1-0.2-0.1-0.3-0.2c-7.2-5.5-13.5-11.9-18.9-19.2c-0.1-0.2-0.3-0.3-0.4-0.5
		c-4.9-6.8-8.7-14.5-11.6-22.5c-0.6-1.6-1-3.2-1.5-4.8c-2.4-8.2-4.1-16.7-4.1-25.7s1.7-17.6,4.1-25.8c0.5-1.6,0.9-3.2,1.5-4.8
		c2.9-8.1,6.6-15.7,11.6-22.6c0.1-0.2,0.3-0.3,0.4-0.5c5.3-7.2,11.7-13.8,18.9-19.2c0.1-0.1,0.2-0.2,0.3-0.2
		c7.4-5.5,15.6-10,24.5-13.2c9.6-3.4,19.8-5.6,30.6-5.6c10.8,0,21,2.2,30.6,5.6c8.9,3.2,17.1,7.7,24.5,13.2c0.1,0.1,0.2,0.2,0.3,0.2
		c7.2,5.5,13.5,12,18.8,19.2c0.1,0.2,0.3,0.3,0.4,0.5c5,6.9,8.7,14.5,11.6,22.6c0.6,1.6,1,3.2,1.5,4.8c2.4,8.2,4.1,16.7,4.1,25.8
		C591.9,692.7,590.2,701.3,587.7,709.5L587.7,709.5z"/>
</g>
</svg>
