<?xml version="1.0" encoding="utf-8"?>
<!-- Svg Vector Icons : http://www.onlinewebfonts.com/icon -->
<!DOCTYPE svg PUBLIC "-//W3C//DTD SVG 1.1//EN" "http://www.w3.org/Graphics/SVG/1.1/DTD/svg11.dtd">
<svg version="1.1" xmlns="http://www.w3.org/2000/svg" xmlns:xlink="http://www.w3.org/1999/xlink" x="0px" y="0px" viewBox="0 0 1000 1000" enable-background="new 0 0 1000 1000" xml:space="preserve">
<metadata> Svg Vector Icons : http://www.onlinewebfonts.com/icon </metadata>
<g><path d="M989,798.3l0.5-0.6c0,0-3.6-13.6-3.6-13.6c-1.4,0-2.6,0,0,0c-21-113.5-99.6-206.6-204.3-248.2c0-0.2,0-0.4,0-0.5c80.7-40.4,136.2-123.6,136.2-220.1c0-136-110.3-246.3-246.3-246.3c-50.4,0-96.6,15.9-135.6,41.9C492.9,84.5,442.4,69,388.3,69C231.8,69,105,195.8,105,352.2c0,112.2,65.4,208.8,160,254.7C141.3,649.2,41.4,764.6,11.6,893.4c0,0,0.3-0.8,0.6-1.8c-1.4,3.4-2.2,7-2.2,10.9c0,15,11.6,26.9,26.3,28.1l0.3,0.4h1.9l697.3-0.1l0.3-0.4c0.8,0,1.5,0.5,2.3,0.5c15.7,0,28.4-12.7,28.4-28.4c0-5.4-1.9-10-4.5-14.4c-1.1-3-2.2-6.4-2.3-6.4c-29.8-128.8-124.9-232.6-248.5-274.8c94.6-45.9,160-142.5,160-254.7c0-83.4-36.3-158.2-93.7-210c27.9-15.1,59.8-23.9,93.7-23.9c108.8,0,197,88.2,197,197c0,82.9-51.2,153.6-123.7,182.7c-1-0.1-2-0.3-3-0.3c-22.1,0-39.9,17.9-39.9,39.9c0,22.1,17.9,39.9,39.9,39.9c0.4,0,0.7-0.1,1.1-0.1c0,0.1,0,0.2,0,0.3c93,32.1,164.9,109.3,189.8,205.6H819.3c-13.6,0-24.6,11-24.6,24.6c0,13.6,11,24.6,24.6,24.6l144.3-1l0.4-0.5c14.5-1.3,26-13.1,26-28C990,801.3,989.3,799.9,989,798.3z M709.1,881.7H67.5c38-141.8,167-246.3,320.8-246.3C542,635.5,671,740,709.1,881.7z M622.2,352.2c0,129.2-104.8,234-234,234c-129.2,0-234-104.7-234-234c0-129.2,104.8-234,234-234C517.5,118.3,622.2,223,622.2,352.2z"/></g>
</svg>