<?xml version="1.0" encoding="utf-8"?>
<!-- Generator: Adobe Illustrator 21.1.0, SVG Export Plug-In . SVG Version: 6.00 Build 0)  -->
<svg version="1.1" id="Layer_1" xmlns:sketch="http://www.bohemiancoding.com/sketch/ns"
	 xmlns="http://www.w3.org/2000/svg" xmlns:xlink="http://www.w3.org/1999/xlink" x="0px" y="0px" viewBox="0 0 32 32"
	 style="enable-background:new 0 0 32 32;" xml:space="preserve">
<style type="text/css">
	.st0{fill:#FFFFFF;}
</style>
<title>comment-2</title>
<desc>Created with Sketch Beta.</desc>
<g id="Page-1" sketch:type="MSPage">
	<g id="Icon-Set" transform="translate(-152.000000, -255.000000)" sketch:type="MSLayerGroup">
		<path id="comment-2" sketch:type="MSShapeGroup" class="st0" d="M168,281c-1.2,0-2.3-0.1-3.4-0.4l-4.7,2.8l0.1-4.6
			c-3.6-2.2-6-5.8-6-9.8c0-6.6,6.3-12,14-12s14,5.4,14,12C182,275.6,175.7,281,168,281L168,281z M168,255c-8.8,0-16,6.3-16,14
			c0,4.4,2.3,8.4,6,10.9v7.1l7-4.3c1,0.2,2,0.3,3,0.3c8.8,0,16-6.3,16-14C184,261.3,176.8,255,168,255L168,255z M175,266h-14
			c-0.6,0-1,0.4-1,1c0,0.6,0.4,1,1,1h14c0.6,0,1-0.4,1-1C176,266.4,175.6,266,175,266L175,266z M173,272h-10c-0.6,0-1,0.4-1,1
			s0.4,1,1,1h10c0.6,0,1-0.4,1-1S173.6,272,173,272L173,272z"/>
	</g>
</g>
</svg>
